<?xml version="1.0" encoding="UTF-8"?>
<svg width="18px" height="16px" viewBox="0 0 18 16" version="1.1" xmlns="http://www.w3.org/2000/svg" xmlns:xlink="http://www.w3.org/1999/xlink">
    <!-- Generator: Sketch 64 (93537) - https://sketch.com -->
    <title>Path</title>
    <desc>Created with Sketch.</desc>
    <g id="Page-1" stroke="none" stroke-width="1" fill="none" fill-rule="evenodd">
        <path d="M17.8746845,2.19575043 L15.4829572,0.0920506316 C15.4095699,0.0270885887 15.3120274,-0.00594608656 15.2157756,0.000882309999 C15.1182331,0.00734160404 15.0271443,0.0521875598 14.9626077,0.125823512 L6.28777907,10.0078052 L3.20329724,5.92165578 C3.14447671,5.84377515 3.0568913,5.79228535 2.96008636,5.77899766 C2.86346582,5.76460266 2.76481698,5.79080894 2.68700425,5.85004989 L0.146473954,7.77085939 C-0.0159739476,7.89377053 -0.0482422595,8.12519781 0.0745617161,8.28778746 L5.78586853,15.8536509 C5.85261784,15.9420509 5.95587644,15.9959399 6.06651065,16 C6.07093602,16 6.07554578,16 6.07997114,16 C6.18581121,16 6.28685712,15.9546004 6.35710985,15.8745051 L17.9080592,2.71655408 C18.0426641,2.56356108 18.0277285,2.33010374 17.8746845,2.19575043 Z" id="Path" fill="#FFFFFF" fill-rule="nonzero"></path>
    </g>
</svg>